<?xml version="1.0" encoding="us-ascii" standalone="no"?><svg xmlns="http://www.w3.org/2000/svg" xmlns:xlink="http://www.w3.org/1999/xlink" contentStyleType="text/css" height="1112px" preserveAspectRatio="none" style="width:1209px;height:1112px;background:#FFFFFF;" version="1.1" viewBox="0 0 1209 1112" width="1209px" zoomAndPan="magnify"><defs/><g><!--class SearchModCommand--><g id="elem_SearchModCommand"><rect codeLine="2" fill="#F1F1F1" height="136.0469" id="SearchModCommand" rx="2.5" ry="2.5" style="stroke:#181818;stroke-width:0.5;" width="383" x="264" y="7"/><ellipse cx="383.25" cy="23" fill="#ADD1B2" rx="11" ry="11" style="stroke:#181818;stroke-width:1.0;"/><path d="M386.0156,18.875 Q386.1719,18.6563 386.3594,18.5469 Q386.5469,18.4375 386.7656,18.4375 Q387.1406,18.4375 387.375,18.7031 Q387.6094,18.9531 387.6094,19.5625 L387.6094,21.0156 Q387.6094,21.625 387.375,21.8906 Q387.1406,22.1563 386.7656,22.1563 Q386.4219,22.1563 386.2188,21.9531 Q386.0156,21.7656 385.9063,21.25 Q385.8594,20.8906 385.6719,20.7031 Q385.3438,20.3281 384.7344,20.1094 Q384.125,19.8906 383.5,19.8906 Q382.7344,19.8906 382.0938,20.2188 Q381.4688,20.5469 380.9688,21.2969 Q380.4844,22.0469 380.4844,23.0781 L380.4844,24.1719 Q380.4844,25.4063 381.375,26.2344 Q382.2656,27.0469 383.8594,27.0469 Q384.7969,27.0469 385.4531,26.7969 Q385.8438,26.6406 386.2656,26.2031 Q386.5313,25.9375 386.6719,25.8594 Q386.8281,25.7813 387.0313,25.7813 Q387.3594,25.7813 387.6094,26.0469 Q387.875,26.2969 387.875,26.6406 Q387.875,26.9844 387.5313,27.3906 Q387.0313,27.9688 386.2344,28.2969 Q385.1563,28.75 383.8594,28.75 Q382.3438,28.75 381.1406,28.125 Q380.1563,27.625 379.4688,26.5625 Q378.7813,25.4844 378.7813,24.2031 L378.7813,23.0469 Q378.7813,21.7188 379.3906,20.5781 Q380.0156,19.4219 381.1094,18.8125 Q382.2031,18.1875 383.4375,18.1875 Q384.1719,18.1875 384.8125,18.3594 Q385.4688,18.5156 386.0156,18.875 Z " fill="#000000"/><text fill="#000000" font-family="sans-serif" font-size="14" lengthAdjust="spacing" textLength="136" x="403.75" y="28.7285">SearchModCommand</text><line style="stroke:#181818;stroke-width:0.5;" x1="265" x2="646" y1="39" y2="39"/><ellipse cx="275" cy="53.3047" fill="none" rx="3" ry="3" style="stroke:#038048;stroke-width:1.0;"/><text fill="#000000" font-family="sans-serif" font-size="14" lengthAdjust="spacing" textLength="357" x="284" y="57.5332">static final String CLI_REPRESENTATION = "searchmod"</text><rect fill="none" height="6" style="stroke:#C82930;stroke-width:1.0;" width="6" x="272" y="67.9141"/><text fill="#000000" font-family="sans-serif" font-size="14" lengthAdjust="spacing" textLength="152" x="284" y="75.1426">static final LogUtil logUtil</text><line style="stroke:#181818;stroke-width:0.5;" x1="265" x2="646" y1="82.2188" y2="82.2188"/><ellipse cx="275" cy="96.5234" fill="#84BE84" rx="3" ry="3" style="stroke:#038048;stroke-width:1.0;"/><text fill="#000000" font-family="sans-serif" font-size="14" lengthAdjust="spacing" textLength="281" x="284" y="100.752">void execute(String[] args, User currentUser)</text><rect fill="#F24D5C" height="6" style="stroke:#C82930;stroke-width:1.0;" width="6" x="272" y="111.1328"/><text fill="#000000" font-family="sans-serif" font-size="14" lengthAdjust="spacing" textLength="345" x="284" y="118.3613">static List&lt;Mod&gt; getSearchResults(String searchTerm)</text><ellipse cx="275" cy="131.7422" fill="#84BE84" rx="3" ry="3" style="stroke:#038048;stroke-width:1.0;"/><text fill="#000000" font-family="sans-serif" font-size="14" lengthAdjust="spacing" textLength="146" x="284" y="135.9707">SearchModCommand()</text></g><!--class Command--><g id="elem_Command"><rect codeLine="10" fill="#F1F1F1" height="65.6094" id="Command" rx="2.5" ry="2.5" style="stroke:#181818;stroke-width:0.5;" width="307" x="7" y="229"/><ellipse cx="124.25" cy="245" fill="#B4A7E5" rx="11" ry="11" style="stroke:#181818;stroke-width:1.0;"/><path d="M125.2031,241.6406 L125.2031,248.2969 L126.9219,248.2969 Q127.5313,248.2969 127.7969,248.5313 Q128.0625,248.7656 128.0625,249.1563 Q128.0625,249.5313 127.7969,249.7656 Q127.5313,250 126.9219,250 L121.7813,250 Q121.1719,250 120.9063,249.7656 Q120.6406,249.5313 120.6406,249.1406 Q120.6406,248.7656 120.9063,248.5313 Q121.1719,248.2969 121.7813,248.2969 L123.5,248.2969 L123.5,241.6406 L121.7813,241.6406 Q121.1719,241.6406 120.9063,241.4063 Q120.6406,241.1719 120.6406,240.7813 Q120.6406,240.4063 120.9063,240.1719 Q121.1719,239.9375 121.7813,239.9375 L126.9219,239.9375 Q127.5313,239.9375 127.7969,240.1719 Q128.0625,240.4063 128.0625,240.7813 Q128.0625,241.1719 127.7969,241.4063 Q127.5313,241.6406 126.9219,241.6406 L125.2031,241.6406 Z " fill="#000000"/><text fill="#000000" font-family="sans-serif" font-size="14" font-style="italic" lengthAdjust="spacing" textLength="64" x="144.75" y="250.7285">Command</text><line style="stroke:#181818;stroke-width:0.5;" x1="8" x2="313" y1="261" y2="261"/><line style="stroke:#181818;stroke-width:0.5;" x1="8" x2="313" y1="269" y2="269"/><ellipse cx="18" cy="283.3047" fill="#84BE84" rx="3" ry="3" style="stroke:#038048;stroke-width:1.0;"/><text fill="#000000" font-family="sans-serif" font-size="14" lengthAdjust="spacing" textLength="281" x="27" y="287.5332">void execute(String[] args, User currentUser)</text></g><!--class LogUtil--><g id="elem_LogUtil"><rect codeLine="14" fill="#F1F1F1" height="118.4375" id="LogUtil" rx="2.5" ry="2.5" style="stroke:#181818;stroke-width:0.5;" width="213" x="349" y="203"/><ellipse cx="429.75" cy="219" fill="#ADD1B2" rx="11" ry="11" style="stroke:#181818;stroke-width:1.0;"/><path d="M432.5156,214.875 Q432.6719,214.6563 432.8594,214.5469 Q433.0469,214.4375 433.2656,214.4375 Q433.6406,214.4375 433.875,214.7031 Q434.1094,214.9531 434.1094,215.5625 L434.1094,217.0156 Q434.1094,217.625 433.875,217.8906 Q433.6406,218.1563 433.2656,218.1563 Q432.9219,218.1563 432.7188,217.9531 Q432.5156,217.7656 432.4063,217.25 Q432.3594,216.8906 432.1719,216.7031 Q431.8438,216.3281 431.2344,216.1094 Q430.625,215.8906 430,215.8906 Q429.2344,215.8906 428.5938,216.2188 Q427.9688,216.5469 427.4688,217.2969 Q426.9844,218.0469 426.9844,219.0781 L426.9844,220.1719 Q426.9844,221.4063 427.875,222.2344 Q428.7656,223.0469 430.3594,223.0469 Q431.2969,223.0469 431.9531,222.7969 Q432.3438,222.6406 432.7656,222.2031 Q433.0313,221.9375 433.1719,221.8594 Q433.3281,221.7813 433.5313,221.7813 Q433.8594,221.7813 434.1094,222.0469 Q434.375,222.2969 434.375,222.6406 Q434.375,222.9844 434.0313,223.3906 Q433.5313,223.9688 432.7344,224.2969 Q431.6563,224.75 430.3594,224.75 Q428.8438,224.75 427.6406,224.125 Q426.6563,223.625 425.9688,222.5625 Q425.2813,221.4844 425.2813,220.2031 L425.2813,219.0469 Q425.2813,217.7188 425.8906,216.5781 Q426.5156,215.4219 427.6094,214.8125 Q428.7031,214.1875 429.9375,214.1875 Q430.6719,214.1875 431.3125,214.3594 Q431.9688,214.5156 432.5156,214.875 Z " fill="#000000"/><text fill="#000000" font-family="sans-serif" font-size="14" lengthAdjust="spacing" textLength="43" x="450.25" y="224.7285">LogUtil</text><line style="stroke:#181818;stroke-width:0.5;" x1="350" x2="561" y1="235" y2="235"/><line style="stroke:#181818;stroke-width:0.5;" x1="350" x2="561" y1="243" y2="243"/><ellipse cx="360" cy="257.3047" fill="#84BE84" rx="3" ry="3" style="stroke:#038048;stroke-width:1.0;"/><text fill="#000000" font-family="sans-serif" font-size="14" lengthAdjust="spacing" textLength="146" x="369" y="261.5332">LogUtil(Class&lt;?&gt; clazz)</text><ellipse cx="360" cy="274.9141" fill="#84BE84" rx="3" ry="3" style="stroke:#038048;stroke-width:1.0;"/><text fill="#000000" font-family="sans-serif" font-size="14" lengthAdjust="spacing" textLength="161" x="369" y="279.1426">void info(String message)</text><ellipse cx="360" cy="292.5234" fill="#84BE84" rx="3" ry="3" style="stroke:#038048;stroke-width:1.0;"/><text fill="#000000" font-family="sans-serif" font-size="14" lengthAdjust="spacing" textLength="187" x="369" y="296.752">void warning(String message)</text><ellipse cx="360" cy="310.1328" fill="#84BE84" rx="3" ry="3" style="stroke:#038048;stroke-width:1.0;"/><text fill="#000000" font-family="sans-serif" font-size="14" lengthAdjust="spacing" textLength="181" x="369" y="314.3613">void severe(String message)</text></g><!--class CommandCenter--><g id="elem_CommandCenter"><rect codeLine="21" fill="#F1F1F1" height="100.8281" id="CommandCenter" rx="2.5" ry="2.5" style="stroke:#181818;stroke-width:0.5;" width="510" x="597.5" y="211.5"/><ellipse cx="794.75" cy="227.5" fill="#ADD1B2" rx="11" ry="11" style="stroke:#181818;stroke-width:1.0;"/><path d="M797.5156,223.375 Q797.6719,223.1563 797.8594,223.0469 Q798.0469,222.9375 798.2656,222.9375 Q798.6406,222.9375 798.875,223.2031 Q799.1094,223.4531 799.1094,224.0625 L799.1094,225.5156 Q799.1094,226.125 798.875,226.3906 Q798.6406,226.6563 798.2656,226.6563 Q797.9219,226.6563 797.7188,226.4531 Q797.5156,226.2656 797.4063,225.75 Q797.3594,225.3906 797.1719,225.2031 Q796.8438,224.8281 796.2344,224.6094 Q795.625,224.3906 795,224.3906 Q794.2344,224.3906 793.5938,224.7188 Q792.9688,225.0469 792.4688,225.7969 Q791.9844,226.5469 791.9844,227.5781 L791.9844,228.6719 Q791.9844,229.9063 792.875,230.7344 Q793.7656,231.5469 795.3594,231.5469 Q796.2969,231.5469 796.9531,231.2969 Q797.3438,231.1406 797.7656,230.7031 Q798.0313,230.4375 798.1719,230.3594 Q798.3281,230.2813 798.5313,230.2813 Q798.8594,230.2813 799.1094,230.5469 Q799.375,230.7969 799.375,231.1406 Q799.375,231.4844 799.0313,231.8906 Q798.5313,232.4688 797.7344,232.7969 Q796.6563,233.25 795.3594,233.25 Q793.8438,233.25 792.6406,232.625 Q791.6563,232.125 790.9688,231.0625 Q790.2813,229.9844 790.2813,228.7031 L790.2813,227.5469 Q790.2813,226.2188 790.8906,225.0781 Q791.5156,223.9219 792.6094,223.3125 Q793.7031,222.6875 794.9375,222.6875 Q795.6719,222.6875 796.3125,222.8594 Q796.9688,223.0156 797.5156,223.375 Z " fill="#000000"/><text fill="#000000" font-family="sans-serif" font-size="14" lengthAdjust="spacing" textLength="107" x="815.25" y="233.2285">CommandCenter</text><line style="stroke:#181818;stroke-width:0.5;" x1="598.5" x2="1106.5" y1="243.5" y2="243.5"/><ellipse cx="608.5" cy="257.8047" fill="none" rx="3" ry="3" style="stroke:#038048;stroke-width:1.0;"/><text fill="#000000" font-family="sans-serif" font-size="14" lengthAdjust="spacing" textLength="379" x="617.5" y="262.0332">static Map&lt;String, CondensedMod&gt; allModCodesAndNames</text><line style="stroke:#181818;stroke-width:0.5;" x1="598.5" x2="1106.5" y1="269.1094" y2="269.1094"/><ellipse cx="608.5" cy="283.4141" fill="#84BE84" rx="3" ry="3" style="stroke:#038048;stroke-width:1.0;"/><text fill="#000000" font-family="sans-serif" font-size="14" lengthAdjust="spacing" textLength="484" x="617.5" y="287.6426">static Optional&lt;Mod&gt; modFromCodeOrName(String modCodeOrNameGiven)</text><ellipse cx="608.5" cy="301.0234" fill="#84BE84" rx="3" ry="3" style="stroke:#038048;stroke-width:1.0;"/><text fill="#000000" font-family="sans-serif" font-size="14" lengthAdjust="spacing" textLength="397" x="617.5" y="305.252">static String stringFromBetweenPartsXY(String[] args, int index)</text></g><!--class NUSModsAPI--><g id="elem_NUSModsAPI"><rect codeLine="27" fill="#F1F1F1" height="83.2188" id="NUSModsAPI" rx="2.5" ry="2.5" style="stroke:#181818;stroke-width:0.5;" width="456" x="419.5" y="407.5"/><ellipse cx="602.25" cy="423.5" fill="#ADD1B2" rx="11" ry="11" style="stroke:#181818;stroke-width:1.0;"/><path d="M605.0156,419.375 Q605.1719,419.1563 605.3594,419.0469 Q605.5469,418.9375 605.7656,418.9375 Q606.1406,418.9375 606.375,419.2031 Q606.6094,419.4531 606.6094,420.0625 L606.6094,421.5156 Q606.6094,422.125 606.375,422.3906 Q606.1406,422.6563 605.7656,422.6563 Q605.4219,422.6563 605.2188,422.4531 Q605.0156,422.2656 604.9063,421.75 Q604.8594,421.3906 604.6719,421.2031 Q604.3438,420.8281 603.7344,420.6094 Q603.125,420.3906 602.5,420.3906 Q601.7344,420.3906 601.0938,420.7188 Q600.4688,421.0469 599.9688,421.7969 Q599.4844,422.5469 599.4844,423.5781 L599.4844,424.6719 Q599.4844,425.9063 600.375,426.7344 Q601.2656,427.5469 602.8594,427.5469 Q603.7969,427.5469 604.4531,427.2969 Q604.8438,427.1406 605.2656,426.7031 Q605.5313,426.4375 605.6719,426.3594 Q605.8281,426.2813 606.0313,426.2813 Q606.3594,426.2813 606.6094,426.5469 Q606.875,426.7969 606.875,427.1406 Q606.875,427.4844 606.5313,427.8906 Q606.0313,428.4688 605.2344,428.7969 Q604.1563,429.25 602.8594,429.25 Q601.3438,429.25 600.1406,428.625 Q599.1563,428.125 598.4688,427.0625 Q597.7813,425.9844 597.7813,424.7031 L597.7813,423.5469 Q597.7813,422.2188 598.3906,421.0781 Q599.0156,419.9219 600.1094,419.3125 Q601.2031,418.6875 602.4375,418.6875 Q603.1719,418.6875 603.8125,418.8594 Q604.4688,419.0156 605.0156,419.375 Z " fill="#000000"/><text fill="#000000" font-family="sans-serif" font-size="14" lengthAdjust="spacing" textLength="82" x="622.75" y="429.2285">NUSModsAPI</text><line style="stroke:#181818;stroke-width:0.5;" x1="420.5" x2="874.5" y1="439.5" y2="439.5"/><line style="stroke:#181818;stroke-width:0.5;" x1="420.5" x2="874.5" y1="447.5" y2="447.5"/><ellipse cx="430.5" cy="461.8047" fill="#84BE84" rx="3" ry="3" style="stroke:#038048;stroke-width:1.0;"/><text fill="#000000" font-family="sans-serif" font-size="14" lengthAdjust="spacing" textLength="346" x="439.5" y="466.0332">static Optional&lt;Mod&gt; fetchModuleByCode(String code)</text><ellipse cx="430.5" cy="479.4141" fill="#84BE84" rx="3" ry="3" style="stroke:#038048;stroke-width:1.0;"/><text fill="#000000" font-family="sans-serif" font-size="14" lengthAdjust="spacing" textLength="430" x="439.5" y="483.6426">static Map&lt;String, CondensedMod&gt; fetchAllModCodes(int startYear)</text></g><!--class CondensedMod--><g id="elem_CondensedMod"><rect codeLine="32" fill="#F1F1F1" height="136.0469" id="CondensedMod" rx="2.5" ry="2.5" style="stroke:#181818;stroke-width:0.5;" width="292" x="910.5" y="381"/><ellipse cx="1002.25" cy="397" fill="#ADD1B2" rx="11" ry="11" style="stroke:#181818;stroke-width:1.0;"/><path d="M1005.0156,392.875 Q1005.1719,392.6563 1005.3594,392.5469 Q1005.5469,392.4375 1005.7656,392.4375 Q1006.1406,392.4375 1006.375,392.7031 Q1006.6094,392.9531 1006.6094,393.5625 L1006.6094,395.0156 Q1006.6094,395.625 1006.375,395.8906 Q1006.1406,396.1563 1005.7656,396.1563 Q1005.4219,396.1563 1005.2188,395.9531 Q1005.0156,395.7656 1004.9063,395.25 Q1004.8594,394.8906 1004.6719,394.7031 Q1004.3438,394.3281 1003.7344,394.1094 Q1003.125,393.8906 1002.5,393.8906 Q1001.7344,393.8906 1001.0938,394.2188 Q1000.4688,394.5469 999.9688,395.2969 Q999.4844,396.0469 999.4844,397.0781 L999.4844,398.1719 Q999.4844,399.4063 1000.375,400.2344 Q1001.2656,401.0469 1002.8594,401.0469 Q1003.7969,401.0469 1004.4531,400.7969 Q1004.8438,400.6406 1005.2656,400.2031 Q1005.5313,399.9375 1005.6719,399.8594 Q1005.8281,399.7813 1006.0313,399.7813 Q1006.3594,399.7813 1006.6094,400.0469 Q1006.875,400.2969 1006.875,400.6406 Q1006.875,400.9844 1006.5313,401.3906 Q1006.0313,401.9688 1005.2344,402.2969 Q1004.1563,402.75 1002.8594,402.75 Q1001.3438,402.75 1000.1406,402.125 Q999.1563,401.625 998.4688,400.5625 Q997.7813,399.4844 997.7813,398.2031 L997.7813,397.0469 Q997.7813,395.7188 998.3906,394.5781 Q999.0156,393.4219 1000.1094,392.8125 Q1001.2031,392.1875 1002.4375,392.1875 Q1003.1719,392.1875 1003.8125,392.3594 Q1004.4688,392.5156 1005.0156,392.875 Z " fill="#000000"/><text fill="#000000" font-family="sans-serif" font-size="14" lengthAdjust="spacing" textLength="100" x="1022.75" y="402.7285">CondensedMod</text><line style="stroke:#181818;stroke-width:0.5;" x1="911.5" x2="1201.5" y1="413" y2="413"/><rect fill="none" height="6" style="stroke:#C82930;stroke-width:1.0;" width="6" x="918.5" y="424.3047"/><text fill="#000000" font-family="sans-serif" font-size="14" lengthAdjust="spacing" textLength="72" x="930.5" y="431.5332">String code</text><rect fill="none" height="6" style="stroke:#C82930;stroke-width:1.0;" width="6" x="918.5" y="441.9141"/><text fill="#000000" font-family="sans-serif" font-size="14" lengthAdjust="spacing" textLength="76" x="930.5" y="449.1426">String name</text><line style="stroke:#181818;stroke-width:0.5;" x1="911.5" x2="1201.5" y1="456.2188" y2="456.2188"/><ellipse cx="921.5" cy="470.5234" fill="#84BE84" rx="3" ry="3" style="stroke:#038048;stroke-width:1.0;"/><text fill="#000000" font-family="sans-serif" font-size="14" lengthAdjust="spacing" textLength="105" x="930.5" y="474.752">String getCode()</text><ellipse cx="921.5" cy="488.1328" fill="#84BE84" rx="3" ry="3" style="stroke:#038048;stroke-width:1.0;"/><text fill="#000000" font-family="sans-serif" font-size="14" lengthAdjust="spacing" textLength="107" x="930.5" y="492.3613">String getName()</text><ellipse cx="921.5" cy="505.7422" fill="#84BE84" rx="3" ry="3" style="stroke:#038048;stroke-width:1.0;"/><text fill="#000000" font-family="sans-serif" font-size="14" lengthAdjust="spacing" textLength="266" x="930.5" y="509.9707">CondensedMod(String code, String name)</text></g><!--class Mod--><g id="elem_Mod"><rect codeLine="40" fill="#F1F1F1" height="118.4375" id="Mod" rx="2.5" ry="2.5" style="stroke:#181818;stroke-width:0.5;" width="229" x="533" y="577"/><ellipse cx="629.75" cy="593" fill="#ADD1B2" rx="11" ry="11" style="stroke:#181818;stroke-width:1.0;"/><path d="M632.5156,588.875 Q632.6719,588.6563 632.8594,588.5469 Q633.0469,588.4375 633.2656,588.4375 Q633.6406,588.4375 633.875,588.7031 Q634.1094,588.9531 634.1094,589.5625 L634.1094,591.0156 Q634.1094,591.625 633.875,591.8906 Q633.6406,592.1563 633.2656,592.1563 Q632.9219,592.1563 632.7188,591.9531 Q632.5156,591.7656 632.4063,591.25 Q632.3594,590.8906 632.1719,590.7031 Q631.8438,590.3281 631.2344,590.1094 Q630.625,589.8906 630,589.8906 Q629.2344,589.8906 628.5938,590.2188 Q627.9688,590.5469 627.4688,591.2969 Q626.9844,592.0469 626.9844,593.0781 L626.9844,594.1719 Q626.9844,595.4063 627.875,596.2344 Q628.7656,597.0469 630.3594,597.0469 Q631.2969,597.0469 631.9531,596.7969 Q632.3438,596.6406 632.7656,596.2031 Q633.0313,595.9375 633.1719,595.8594 Q633.3281,595.7813 633.5313,595.7813 Q633.8594,595.7813 634.1094,596.0469 Q634.375,596.2969 634.375,596.6406 Q634.375,596.9844 634.0313,597.3906 Q633.5313,597.9688 632.7344,598.2969 Q631.6563,598.75 630.3594,598.75 Q628.8438,598.75 627.6406,598.125 Q626.6563,597.625 625.9688,596.5625 Q625.2813,595.4844 625.2813,594.2031 L625.2813,593.0469 Q625.2813,591.7188 625.8906,590.5781 Q626.5156,589.4219 627.6094,588.8125 Q628.7031,588.1875 629.9375,588.1875 Q630.6719,588.1875 631.3125,588.3594 Q631.9688,588.5156 632.5156,588.875 Z " fill="#000000"/><text fill="#000000" font-family="sans-serif" font-size="14" lengthAdjust="spacing" textLength="27" x="650.25" y="598.7285">Mod</text><line style="stroke:#181818;stroke-width:0.5;" x1="534" x2="761" y1="609" y2="609"/><line style="stroke:#181818;stroke-width:0.5;" x1="534" x2="761" y1="617" y2="617"/><ellipse cx="544" cy="631.3047" fill="#84BE84" rx="3" ry="3" style="stroke:#038048;stroke-width:1.0;"/><text fill="#000000" font-family="sans-serif" font-size="14" lengthAdjust="spacing" textLength="160" x="553" y="635.5332">String getDetailedString()</text><ellipse cx="544" cy="648.9141" fill="#84BE84" rx="3" ry="3" style="stroke:#038048;stroke-width:1.0;"/><text fill="#000000" font-family="sans-serif" font-size="14" lengthAdjust="spacing" textLength="142" x="553" y="653.1426">String getDescription()</text><ellipse cx="544" cy="666.5234" fill="#84BE84" rx="3" ry="3" style="stroke:#038048;stroke-width:1.0;"/><text fill="#000000" font-family="sans-serif" font-size="14" lengthAdjust="spacing" textLength="203" x="553" y="670.752">List&lt;Timetable&gt; getTimetables()</text><ellipse cx="544" cy="684.1328" fill="#84BE84" rx="3" ry="3" style="stroke:#038048;stroke-width:1.0;"/><text fill="#000000" font-family="sans-serif" font-size="14" lengthAdjust="spacing" textLength="181" x="553" y="688.3613">ModAttributes getAttributes()</text></g><!--class ModAttributes--><g id="elem_ModAttributes"><rect codeLine="47" fill="#F1F1F1" height="153.6563" id="ModAttributes" rx="2.5" ry="2.5" style="stroke:#181818;stroke-width:0.5;" width="295" x="500" y="755"/><ellipse cx="599.75" cy="771" fill="#ADD1B2" rx="11" ry="11" style="stroke:#181818;stroke-width:1.0;"/><path d="M602.5156,766.875 Q602.6719,766.6563 602.8594,766.5469 Q603.0469,766.4375 603.2656,766.4375 Q603.6406,766.4375 603.875,766.7031 Q604.1094,766.9531 604.1094,767.5625 L604.1094,769.0156 Q604.1094,769.625 603.875,769.8906 Q603.6406,770.1563 603.2656,770.1563 Q602.9219,770.1563 602.7188,769.9531 Q602.5156,769.7656 602.4063,769.25 Q602.3594,768.8906 602.1719,768.7031 Q601.8438,768.3281 601.2344,768.1094 Q600.625,767.8906 600,767.8906 Q599.2344,767.8906 598.5938,768.2188 Q597.9688,768.5469 597.4688,769.2969 Q596.9844,770.0469 596.9844,771.0781 L596.9844,772.1719 Q596.9844,773.4063 597.875,774.2344 Q598.7656,775.0469 600.3594,775.0469 Q601.2969,775.0469 601.9531,774.7969 Q602.3438,774.6406 602.7656,774.2031 Q603.0313,773.9375 603.1719,773.8594 Q603.3281,773.7813 603.5313,773.7813 Q603.8594,773.7813 604.1094,774.0469 Q604.375,774.2969 604.375,774.6406 Q604.375,774.9844 604.0313,775.3906 Q603.5313,775.9688 602.7344,776.2969 Q601.6563,776.75 600.3594,776.75 Q598.8438,776.75 597.6406,776.125 Q596.6563,775.625 595.9688,774.5625 Q595.2813,773.4844 595.2813,772.2031 L595.2813,771.0469 Q595.2813,769.7188 595.8906,768.5781 Q596.5156,767.4219 597.6094,766.8125 Q598.7031,766.1875 599.9375,766.1875 Q600.6719,766.1875 601.3125,766.3594 Q601.9688,766.5156 602.5156,766.875 Z " fill="#000000"/><text fill="#000000" font-family="sans-serif" font-size="14" lengthAdjust="spacing" textLength="87" x="620.25" y="776.7285">ModAttributes</text><line style="stroke:#181818;stroke-width:0.5;" x1="501" x2="794" y1="787" y2="787"/><line style="stroke:#181818;stroke-width:0.5;" x1="501" x2="794" y1="795" y2="795"/><ellipse cx="511" cy="809.3047" fill="#84BE84" rx="3" ry="3" style="stroke:#038048;stroke-width:1.0;"/><text fill="#000000" font-family="sans-serif" font-size="14" lengthAdjust="spacing" textLength="126" x="520" y="813.5332">Faculty getFaculty()</text><ellipse cx="511" cy="826.9141" fill="#84BE84" rx="3" ry="3" style="stroke:#038048;stroke-width:1.0;"/><text fill="#000000" font-family="sans-serif" font-size="14" lengthAdjust="spacing" textLength="192" x="520" y="831.1426">String listAvailableSemesters()</text><ellipse cx="511" cy="844.5234" fill="#84BE84" rx="3" ry="3" style="stroke:#038048;stroke-width:1.0;"/><text fill="#000000" font-family="sans-serif" font-size="14" lengthAdjust="spacing" textLength="108" x="520" y="848.752">double getUnits()</text><ellipse cx="511" cy="862.1328" fill="#84BE84" rx="3" ry="3" style="stroke:#038048;stroke-width:1.0;"/><text fill="#000000" font-family="sans-serif" font-size="14" lengthAdjust="spacing" textLength="123" x="520" y="866.3613">boolean isGraded()</text><ellipse cx="511" cy="879.7422" fill="#84BE84" rx="3" ry="3" style="stroke:#038048;stroke-width:1.0;"/><text fill="#000000" font-family="sans-serif" font-size="14" lengthAdjust="spacing" textLength="182" x="520" y="883.9707">List&lt;Mod&gt; getPrerequisites()</text><ellipse cx="511" cy="897.3516" fill="#84BE84" rx="3" ry="3" style="stroke:#038048;stroke-width:1.0;"/><text fill="#000000" font-family="sans-serif" font-size="14" lengthAdjust="spacing" textLength="269" x="520" y="901.5801">Optional&lt;WeeklyWorkload&gt; getWorkload()</text></g><!--class Faculty--><g id="elem_Faculty"><rect codeLine="56" fill="#F1F1F1" height="65.6094" id="Faculty" rx="2.5" ry="2.5" style="stroke:#181818;stroke-width:0.5;" width="133" x="485" y="1004"/><ellipse cx="524.75" cy="1020" fill="#ADD1B2" rx="11" ry="11" style="stroke:#181818;stroke-width:1.0;"/><path d="M527.5156,1015.875 Q527.6719,1015.6563 527.8594,1015.5469 Q528.0469,1015.4375 528.2656,1015.4375 Q528.6406,1015.4375 528.875,1015.7031 Q529.1094,1015.9531 529.1094,1016.5625 L529.1094,1018.0156 Q529.1094,1018.625 528.875,1018.8906 Q528.6406,1019.1563 528.2656,1019.1563 Q527.9219,1019.1563 527.7188,1018.9531 Q527.5156,1018.7656 527.4063,1018.25 Q527.3594,1017.8906 527.1719,1017.7031 Q526.8438,1017.3281 526.2344,1017.1094 Q525.625,1016.8906 525,1016.8906 Q524.2344,1016.8906 523.5938,1017.2188 Q522.9688,1017.5469 522.4688,1018.2969 Q521.9844,1019.0469 521.9844,1020.0781 L521.9844,1021.1719 Q521.9844,1022.4063 522.875,1023.2344 Q523.7656,1024.0469 525.3594,1024.0469 Q526.2969,1024.0469 526.9531,1023.7969 Q527.3438,1023.6406 527.7656,1023.2031 Q528.0313,1022.9375 528.1719,1022.8594 Q528.3281,1022.7813 528.5313,1022.7813 Q528.8594,1022.7813 529.1094,1023.0469 Q529.375,1023.2969 529.375,1023.6406 Q529.375,1023.9844 529.0313,1024.3906 Q528.5313,1024.9688 527.7344,1025.2969 Q526.6563,1025.75 525.3594,1025.75 Q523.8438,1025.75 522.6406,1025.125 Q521.6563,1024.625 520.9688,1023.5625 Q520.2813,1022.4844 520.2813,1021.2031 L520.2813,1020.0469 Q520.2813,1018.7188 520.8906,1017.5781 Q521.5156,1016.4219 522.6094,1015.8125 Q523.7031,1015.1875 524.9375,1015.1875 Q525.6719,1015.1875 526.3125,1015.3594 Q526.9688,1015.5156 527.5156,1015.875 Z " fill="#000000"/><text fill="#000000" font-family="sans-serif" font-size="14" lengthAdjust="spacing" textLength="46" x="544.25" y="1025.7285">Faculty</text><line style="stroke:#181818;stroke-width:0.5;" x1="486" x2="617" y1="1036" y2="1036"/><line style="stroke:#181818;stroke-width:0.5;" x1="486" x2="617" y1="1044" y2="1044"/><ellipse cx="496" cy="1058.3047" fill="#84BE84" rx="3" ry="3" style="stroke:#038048;stroke-width:1.0;"/><text fill="#000000" font-family="sans-serif" font-size="14" lengthAdjust="spacing" textLength="107" x="505" y="1062.5332">String getName()</text></g><!--class WeeklyWorkload--><g id="elem_WeeklyWorkload"><rect codeLine="60" fill="#F1F1F1" height="136.0469" id="WeeklyWorkload" rx="2.5" ry="2.5" style="stroke:#181818;stroke-width:0.5;" width="183" x="653" y="969"/><ellipse cx="688.25" cy="985" fill="#ADD1B2" rx="11" ry="11" style="stroke:#181818;stroke-width:1.0;"/><path d="M691.0156,980.875 Q691.1719,980.6563 691.3594,980.5469 Q691.5469,980.4375 691.7656,980.4375 Q692.1406,980.4375 692.375,980.7031 Q692.6094,980.9531 692.6094,981.5625 L692.6094,983.0156 Q692.6094,983.625 692.375,983.8906 Q692.1406,984.1563 691.7656,984.1563 Q691.4219,984.1563 691.2188,983.9531 Q691.0156,983.7656 690.9063,983.25 Q690.8594,982.8906 690.6719,982.7031 Q690.3438,982.3281 689.7344,982.1094 Q689.125,981.8906 688.5,981.8906 Q687.7344,981.8906 687.0938,982.2188 Q686.4688,982.5469 685.9688,983.2969 Q685.4844,984.0469 685.4844,985.0781 L685.4844,986.1719 Q685.4844,987.4063 686.375,988.2344 Q687.2656,989.0469 688.8594,989.0469 Q689.7969,989.0469 690.4531,988.7969 Q690.8438,988.6406 691.2656,988.2031 Q691.5313,987.9375 691.6719,987.8594 Q691.8281,987.7813 692.0313,987.7813 Q692.3594,987.7813 692.6094,988.0469 Q692.875,988.2969 692.875,988.6406 Q692.875,988.9844 692.5313,989.3906 Q692.0313,989.9688 691.2344,990.2969 Q690.1563,990.75 688.8594,990.75 Q687.3438,990.75 686.1406,990.125 Q685.1563,989.625 684.4688,988.5625 Q683.7813,987.4844 683.7813,986.2031 L683.7813,985.0469 Q683.7813,983.7188 684.3906,982.5781 Q685.0156,981.4219 686.1094,980.8125 Q687.2031,980.1875 688.4375,980.1875 Q689.1719,980.1875 689.8125,980.3594 Q690.4688,980.5156 691.0156,980.875 Z " fill="#000000"/><text fill="#000000" font-family="sans-serif" font-size="14" lengthAdjust="spacing" textLength="106" x="706.75" y="990.7285">WeeklyWorkload</text><line style="stroke:#181818;stroke-width:0.5;" x1="654" x2="835" y1="1001" y2="1001"/><ellipse cx="664" cy="1015.3047" fill="none" rx="3" ry="3" style="stroke:#038048;stroke-width:1.0;"/><text fill="#000000" font-family="sans-serif" font-size="14" lengthAdjust="spacing" textLength="127" x="673" y="1019.5332">double lectureHours</text><ellipse cx="664" cy="1032.9141" fill="none" rx="3" ry="3" style="stroke:#038048;stroke-width:1.0;"/><text fill="#000000" font-family="sans-serif" font-size="14" lengthAdjust="spacing" textLength="127" x="673" y="1037.1426">double tutorialHours</text><ellipse cx="664" cy="1050.5234" fill="none" rx="3" ry="3" style="stroke:#038048;stroke-width:1.0;"/><text fill="#000000" font-family="sans-serif" font-size="14" lengthAdjust="spacing" textLength="127" x="673" y="1054.752">double projectHours</text><ellipse cx="664" cy="1068.1328" fill="none" rx="3" ry="3" style="stroke:#038048;stroke-width:1.0;"/><text fill="#000000" font-family="sans-serif" font-size="14" lengthAdjust="spacing" textLength="157" x="673" y="1072.3613">double preparationHours</text><line style="stroke:#181818;stroke-width:0.5;" x1="654" x2="835" y1="1079.4375" y2="1079.4375"/><ellipse cx="664" cy="1093.7422" fill="#84BE84" rx="3" ry="3" style="stroke:#038048;stroke-width:1.0;"/><text fill="#000000" font-family="sans-serif" font-size="14" lengthAdjust="spacing" textLength="100" x="673" y="1097.9707">String toString()</text></g><!--link SearchModCommand to Command--><g id="link_SearchModCommand_Command"><path codeLine="68" d="M348.58,143.05 C301.92,172.31 264.6301,195.6978 226.9601,219.3178 " fill="none" id="SearchModCommand-to-Command" style="stroke:#181818;stroke-width:1.0;stroke-dasharray:7.0,7.0;"/><polygon fill="none" points="211.71,228.88,230.1475,224.4012,223.7727,214.2345,211.71,228.88" style="stroke:#181818;stroke-width:1.0;"/></g><!--link SearchModCommand to LogUtil--><g id="link_SearchModCommand_LogUtil"><path codeLine="69" d="M455.5,143.05 C455.5,162.59 455.5,177.78 455.5,196.74 " fill="none" id="SearchModCommand-to-LogUtil" style="stroke:#181818;stroke-width:1.0;"/><polygon fill="#181818" points="455.5,202.74,459.5,193.74,455.5,197.74,451.5,193.74,455.5,202.74" style="stroke:#181818;stroke-width:1.0;"/></g><!--link SearchModCommand to CommandCenter--><g id="link_SearchModCommand_CommandCenter"><path codeLine="70" d="M599.39,143.05 C647.87,165.65 695.6311,187.9065 740.6911,208.8965 " fill="none" id="SearchModCommand-to-CommandCenter" style="stroke:#181818;stroke-width:1.0;"/><polygon fill="#181818" points="746.13,211.43,739.6607,204.0038,741.5976,209.3187,736.2827,211.2556,746.13,211.43" style="stroke:#181818;stroke-width:1.0;"/></g><!--link CommandCenter to NUSModsAPI--><g id="link_CommandCenter_NUSModsAPI"><path codeLine="71" d="M797.56,312.58 C764.71,342.22 727.9339,375.4097 697.0139,403.3197 " fill="none" id="CommandCenter-to-NUSModsAPI" style="stroke:#181818;stroke-width:1.0;"/><polygon fill="#181818" points="692.56,407.34,701.921,404.2788,696.2716,403.9897,696.5606,398.3403,692.56,407.34" style="stroke:#181818;stroke-width:1.0;"/></g><!--link CommandCenter to CondensedMod--><g id="link_CommandCenter_CondensedMod"><path codeLine="72" d="M907.17,312.58 C930.3,333.55 953.1653,354.2896 978.0553,376.8596 " fill="none" id="CommandCenter-to-CondensedMod" style="stroke:#181818;stroke-width:1.0;"/><polygon fill="#181818" points="982.5,380.89,978.5199,371.8812,978.7961,377.5313,973.146,377.8075,982.5,380.89" style="stroke:#181818;stroke-width:1.0;"/></g><!--link NUSModsAPI to Mod--><g id="link_NUSModsAPI_Mod"><path codeLine="73" d="M647.5,490.6 C647.5,515.91 647.5,542.9 647.5,570.95 " fill="none" id="NUSModsAPI-to-Mod" style="stroke:#181818;stroke-width:1.0;"/><polygon fill="#181818" points="647.5,576.95,651.5,567.95,647.5,571.95,643.5,567.95,647.5,576.95" style="stroke:#181818;stroke-width:1.0;"/></g><!--link Mod to ModAttributes--><g id="link_Mod_ModAttributes"><path codeLine="74" d="M647.5,695.21 C647.5,713.96 647.5,729.02 647.5,748.87 " fill="none" id="Mod-to-ModAttributes" style="stroke:#181818;stroke-width:1.0;"/><polygon fill="#181818" points="647.5,754.87,651.5,745.87,647.5,749.87,643.5,745.87,647.5,754.87" style="stroke:#181818;stroke-width:1.0;"/></g><!--link ModAttributes to Faculty--><g id="link_ModAttributes_Faculty"><path codeLine="75" d="M611.48,909.17 C596,941.91 581.3057,972.9762 569.2857,998.3862 " fill="none" id="ModAttributes-to-Faculty" style="stroke:#181818;stroke-width:1.0;"/><polygon fill="#181818" points="566.72,1003.81,574.1844,997.3848,568.8581,999.2902,566.9527,993.9639,566.72,1003.81" style="stroke:#181818;stroke-width:1.0;"/></g><!--link ModAttributes to WeeklyWorkload--><g id="link_ModAttributes_WeeklyWorkload"><path codeLine="76" d="M683.9,909.17 C693.25,928.74 700.6513,944.2472 709.7813,963.3372 " fill="none" id="ModAttributes-to-WeeklyWorkload" style="stroke:#181818;stroke-width:1.0;"/><polygon fill="#181818" points="712.37,968.75,712.0954,958.905,710.2127,964.2393,704.8784,962.3566,712.37,968.75" style="stroke:#181818;stroke-width:1.0;"/></g><!--SRC=[bLNRRXen47tVhx3o14h85wHKX90qKa9G0ALHLLNEUg1kl3QrlUJQV-_Owzsr5rgrI0XxpipncOjDBgWnP0vKvz-l5Hkheg2IaRUCuEVGM6fvJbPSKa7cLdEv9kEhos-tazdjP3wPBaQBovif-K0EZ6Se53lmaOCayagjbvOB8ghVYdkhE2Fm37bfeLTnV_bAg5wR8x8qe4bUQWtIkdK_8RtYnfwWs25PWwsatu8fXJM1XrHg5g2BAlAmcs2ld_tACYujw1NDWNJo_Zzjo9JxCjPv1fQmxOqTUF9nID3hzRKV7S7bIjMQ2p26hY66dwYM2Ft5my0MDEmuD8f2NcDmcNQwUaqt9rNW4Vf91j80ysMbGlXICJ0ZoQOKUPF8cutb2XjRDG6RVgvLuTnlj7Dkv5GSbV62Rq7s4vgwMVx7KPo2VGAGCwgj-NpVBJns2xyCdgFyfiivQZ2ZsMKdkLJY2gplVYdWzCLfgYNckEx_OrKyoQWjJSy9mYXjxt6wagAtOK7M83elCKWiJHZHoe0ZxGNskrPVsM2DJuXJEI8HRQIe5H8Hde6bN02hBBi7de79DVTrh45_ynQymCW70Vx-DJjJE-5X8uii3tXvZ7DfTxrKK-GMr9tJ7E_nYuiAouukWGf6MzJjZfm3JYOETdCqKoMQNVHISjkO7vGIG2NXva9J1Yn9ftv8PXflqi-I6sxRN9enkWDu52ztIZyAHQk0UXCdLUj_-qFt6iUKh_OF-WNajjJmIPNQ980jhTASYbraezKFZDe7m8PgwjA8m23CggRvg6pdN-3u-7rOFo6xw60mh5-y_M3o-6JfK-JmzlBk0UCHpw9hxZ1dSYCTrkqOPUbGEJnqP0-IjY3x3G00]--></g></svg>