<?xml version="1.0" encoding="us-ascii" standalone="no"?><svg xmlns="http://www.w3.org/2000/svg" xmlns:xlink="http://www.w3.org/1999/xlink" contentStyleType="text/css" height="1086px" preserveAspectRatio="none" style="width:1188px;height:1086px;background:#FFFFFF;" version="1.1" viewBox="0 0 1188 1086" width="1188px" zoomAndPan="magnify"><defs/><g><!--class SearchModCommand--><g id="elem_SearchModCommand"><rect codeLine="6" fill="#F1F1F1" height="131.6563" id="SearchModCommand" rx="2.5" ry="2.5" style="stroke:#181818;stroke-width:0.5;" width="377" x="258" y="7"/><rect fill="#ADD8E6" height="27.6094" rx="2.5" ry="2.5" style="stroke:#ADD8E6;stroke-width:0.5;" width="377" x="258" y="7"/><rect fill="#ADD8E6" height="2.5" style="stroke:#ADD8E6;stroke-width:0.5;" width="377" x="258" y="32.1094"/><rect codeLine="6" fill="none" height="131.6563" id="SearchModCommand" rx="2.5" ry="2.5" style="stroke:#181818;stroke-width:0.5;" width="377" x="258" y="7"/><text fill="#000000" font-family="sans-serif" font-size="14" lengthAdjust="spacing" textLength="136" x="378.5" y="26.5332">SearchModCommand</text><line style="stroke:#181818;stroke-width:0.5;" x1="259" x2="634" y1="34.6094" y2="34.6094"/><text fill="#000000" font-family="sans-serif" font-size="14" lengthAdjust="spacing" textLength="365" x="264" y="53.1426">+static final String CLI_REPRESENTATION = "searchmod"</text><text fill="#000000" font-family="sans-serif" font-size="14" lengthAdjust="spacing" textLength="157" x="264" y="70.752">-static final LogUtil logUtil</text><line style="stroke:#181818;stroke-width:0.5;" x1="259" x2="634" y1="77.8281" y2="77.8281"/><text fill="#000000" font-family="sans-serif" font-size="14" lengthAdjust="spacing" textLength="289" x="264" y="96.3613">+void execute(String[] args, User currentUser)</text><text fill="#000000" font-family="sans-serif" font-size="14" lengthAdjust="spacing" textLength="350" x="264" y="113.9707">-static List&lt;Mod&gt; getSearchResults(String searchTerm)</text><text fill="#000000" font-family="sans-serif" font-size="14" lengthAdjust="spacing" textLength="154" x="264" y="131.5801">+SearchModCommand()</text></g><!--class <<interface>> \n Command--><g id="elem_&lt;&lt;interface&gt;&gt; \n Command"><rect codeLine="14" fill="#F1F1F1" height="78.8281" id="&lt;&lt;interface&gt;&gt; \n Command" rx="2.5" ry="2.5" style="stroke:#181818;stroke-width:0.5;" width="301" x="7" y="216.5"/><rect fill="#ADD8E6" height="45.2188" rx="2.5" ry="2.5" style="stroke:#ADD8E6;stroke-width:0.5;" width="301" x="7" y="216.5"/><rect fill="#ADD8E6" height="2.5" style="stroke:#ADD8E6;stroke-width:0.5;" width="301" x="7" y="259.2188"/><rect codeLine="14" fill="none" height="78.8281" id="&lt;&lt;interface&gt;&gt; \n Command" rx="2.5" ry="2.5" style="stroke:#181818;stroke-width:0.5;" width="301" x="7" y="216.5"/><text fill="#000000" font-family="sans-serif" font-size="14" font-style="italic" lengthAdjust="spacing" textLength="71" x="120" y="236.0332">&#171;interface&#187;</text><text fill="#000000" font-family="sans-serif" font-size="14" font-style="italic" lengthAdjust="spacing" textLength="64" x="127.5" y="253.6426">Command</text><line style="stroke:#181818;stroke-width:0.5;" x1="8" x2="307" y1="261.7188" y2="261.7188"/><line style="stroke:#181818;stroke-width:0.5;" x1="8" x2="307" y1="269.7188" y2="269.7188"/><text fill="#000000" font-family="sans-serif" font-size="14" lengthAdjust="spacing" textLength="289" x="13" y="288.252">+void execute(String[] args, User currentUser)</text></g><!--class LogUtil--><g id="elem_LogUtil"><rect codeLine="18" fill="#F1F1F1" height="114.0469" id="LogUtil" rx="2.5" ry="2.5" style="stroke:#181818;stroke-width:0.5;" width="207" x="343" y="199"/><rect fill="#ADD8E6" height="27.6094" rx="2.5" ry="2.5" style="stroke:#ADD8E6;stroke-width:0.5;" width="207" x="343" y="199"/><rect fill="#ADD8E6" height="2.5" style="stroke:#ADD8E6;stroke-width:0.5;" width="207" x="343" y="224.1094"/><rect codeLine="18" fill="none" height="114.0469" id="LogUtil" rx="2.5" ry="2.5" style="stroke:#181818;stroke-width:0.5;" width="207" x="343" y="199"/><text fill="#000000" font-family="sans-serif" font-size="14" lengthAdjust="spacing" textLength="43" x="425" y="218.5332">LogUtil</text><line style="stroke:#181818;stroke-width:0.5;" x1="344" x2="549" y1="226.6094" y2="226.6094"/><line style="stroke:#181818;stroke-width:0.5;" x1="344" x2="549" y1="234.6094" y2="234.6094"/><text fill="#000000" font-family="sans-serif" font-size="14" lengthAdjust="spacing" textLength="154" x="349" y="253.1426">+LogUtil(Class&lt;?&gt; clazz)</text><text fill="#000000" font-family="sans-serif" font-size="14" lengthAdjust="spacing" textLength="169" x="349" y="270.752">+void info(String message)</text><text fill="#000000" font-family="sans-serif" font-size="14" lengthAdjust="spacing" textLength="195" x="349" y="288.3613">+void warning(String message)</text><text fill="#000000" font-family="sans-serif" font-size="14" lengthAdjust="spacing" textLength="189" x="349" y="305.9707">+void severe(String message)</text></g><!--class CommandCenter--><g id="elem_CommandCenter"><rect codeLine="25" fill="#F1F1F1" height="96.4375" id="CommandCenter" rx="2.5" ry="2.5" style="stroke:#181818;stroke-width:0.5;" width="504" x="585.5" y="208"/><rect fill="#ADD8E6" height="27.6094" rx="2.5" ry="2.5" style="stroke:#ADD8E6;stroke-width:0.5;" width="504" x="585.5" y="208"/><rect fill="#ADD8E6" height="2.5" style="stroke:#ADD8E6;stroke-width:0.5;" width="504" x="585.5" y="233.1094"/><rect codeLine="25" fill="none" height="96.4375" id="CommandCenter" rx="2.5" ry="2.5" style="stroke:#181818;stroke-width:0.5;" width="504" x="585.5" y="208"/><text fill="#000000" font-family="sans-serif" font-size="14" lengthAdjust="spacing" textLength="107" x="784" y="227.5332">CommandCenter</text><line style="stroke:#181818;stroke-width:0.5;" x1="586.5" x2="1088.5" y1="235.6094" y2="235.6094"/><text fill="#000000" font-family="sans-serif" font-size="14" lengthAdjust="spacing" textLength="387" x="591.5" y="254.1426">+static Map&lt;String, CondensedMod&gt; allModCodesAndNames</text><line style="stroke:#181818;stroke-width:0.5;" x1="586.5" x2="1088.5" y1="261.2188" y2="261.2188"/><text fill="#000000" font-family="sans-serif" font-size="14" lengthAdjust="spacing" textLength="492" x="591.5" y="279.752">+static Optional&lt;Mod&gt; modFromCodeOrName(String modCodeOrNameGiven)</text><text fill="#000000" font-family="sans-serif" font-size="14" lengthAdjust="spacing" textLength="405" x="591.5" y="297.3613">+static String stringFromBetweenPartsXY(String[] args, int index)</text></g><!--class NUSModsAPI--><g id="elem_NUSModsAPI"><rect codeLine="31" fill="#F1F1F1" height="78.8281" id="NUSModsAPI" rx="2.5" ry="2.5" style="stroke:#181818;stroke-width:0.5;" width="450" x="410.5" y="399.5"/><rect fill="#ADD8E6" height="27.6094" rx="2.5" ry="2.5" style="stroke:#ADD8E6;stroke-width:0.5;" width="450" x="410.5" y="399.5"/><rect fill="#ADD8E6" height="2.5" style="stroke:#ADD8E6;stroke-width:0.5;" width="450" x="410.5" y="424.6094"/><rect codeLine="31" fill="none" height="78.8281" id="NUSModsAPI" rx="2.5" ry="2.5" style="stroke:#181818;stroke-width:0.5;" width="450" x="410.5" y="399.5"/><text fill="#000000" font-family="sans-serif" font-size="14" lengthAdjust="spacing" textLength="82" x="594.5" y="419.0332">NUSModsAPI</text><line style="stroke:#181818;stroke-width:0.5;" x1="411.5" x2="859.5" y1="427.1094" y2="427.1094"/><line style="stroke:#181818;stroke-width:0.5;" x1="411.5" x2="859.5" y1="435.1094" y2="435.1094"/><text fill="#000000" font-family="sans-serif" font-size="14" lengthAdjust="spacing" textLength="354" x="416.5" y="453.6426">+static Optional&lt;Mod&gt; fetchModuleByCode(String code)</text><text fill="#000000" font-family="sans-serif" font-size="14" lengthAdjust="spacing" textLength="438" x="416.5" y="471.252">+static Map&lt;String, CondensedMod&gt; fetchAllModCodes(int startYear)</text></g><!--class CondensedMod--><g id="elem_CondensedMod"><rect codeLine="36" fill="#F1F1F1" height="131.6563" id="CondensedMod" rx="2.5" ry="2.5" style="stroke:#181818;stroke-width:0.5;" width="286" x="895.5" y="373"/><rect fill="#ADD8E6" height="27.6094" rx="2.5" ry="2.5" style="stroke:#ADD8E6;stroke-width:0.5;" width="286" x="895.5" y="373"/><rect fill="#ADD8E6" height="2.5" style="stroke:#ADD8E6;stroke-width:0.5;" width="286" x="895.5" y="398.1094"/><rect codeLine="36" fill="none" height="131.6563" id="CondensedMod" rx="2.5" ry="2.5" style="stroke:#181818;stroke-width:0.5;" width="286" x="895.5" y="373"/><text fill="#000000" font-family="sans-serif" font-size="14" lengthAdjust="spacing" textLength="100" x="988.5" y="392.5332">CondensedMod</text><line style="stroke:#181818;stroke-width:0.5;" x1="896.5" x2="1180.5" y1="400.6094" y2="400.6094"/><text fill="#000000" font-family="sans-serif" font-size="14" lengthAdjust="spacing" textLength="77" x="901.5" y="419.1426">-String code</text><text fill="#000000" font-family="sans-serif" font-size="14" lengthAdjust="spacing" textLength="81" x="901.5" y="436.752">-String name</text><line style="stroke:#181818;stroke-width:0.5;" x1="896.5" x2="1180.5" y1="443.8281" y2="443.8281"/><text fill="#000000" font-family="sans-serif" font-size="14" lengthAdjust="spacing" textLength="113" x="901.5" y="462.3613">+String getCode()</text><text fill="#000000" font-family="sans-serif" font-size="14" lengthAdjust="spacing" textLength="115" x="901.5" y="479.9707">+String getName()</text><text fill="#000000" font-family="sans-serif" font-size="14" lengthAdjust="spacing" textLength="274" x="901.5" y="497.5801">+CondensedMod(String code, String name)</text></g><!--class Mod--><g id="elem_Mod"><rect codeLine="44" fill="#F1F1F1" height="114.0469" id="Mod" rx="2.5" ry="2.5" style="stroke:#181818;stroke-width:0.5;" width="223" x="524" y="565"/><rect fill="#ADD8E6" height="27.6094" rx="2.5" ry="2.5" style="stroke:#ADD8E6;stroke-width:0.5;" width="223" x="524" y="565"/><rect fill="#ADD8E6" height="2.5" style="stroke:#ADD8E6;stroke-width:0.5;" width="223" x="524" y="590.1094"/><rect codeLine="44" fill="none" height="114.0469" id="Mod" rx="2.5" ry="2.5" style="stroke:#181818;stroke-width:0.5;" width="223" x="524" y="565"/><text fill="#000000" font-family="sans-serif" font-size="14" lengthAdjust="spacing" textLength="27" x="622" y="584.5332">Mod</text><line style="stroke:#181818;stroke-width:0.5;" x1="525" x2="746" y1="592.6094" y2="592.6094"/><line style="stroke:#181818;stroke-width:0.5;" x1="525" x2="746" y1="600.6094" y2="600.6094"/><text fill="#000000" font-family="sans-serif" font-size="14" lengthAdjust="spacing" textLength="168" x="530" y="619.1426">+String getDetailedString()</text><text fill="#000000" font-family="sans-serif" font-size="14" lengthAdjust="spacing" textLength="150" x="530" y="636.752">+String getDescription()</text><text fill="#000000" font-family="sans-serif" font-size="14" lengthAdjust="spacing" textLength="211" x="530" y="654.3613">+List&lt;Timetable&gt; getTimetables()</text><text fill="#000000" font-family="sans-serif" font-size="14" lengthAdjust="spacing" textLength="189" x="530" y="671.9707">+ModAttributes getAttributes()</text></g><!--class ModAttributes--><g id="elem_ModAttributes"><rect codeLine="51" fill="#F1F1F1" height="149.2656" id="ModAttributes" rx="2.5" ry="2.5" style="stroke:#181818;stroke-width:0.5;" width="289" x="491" y="739"/><rect fill="#ADD8E6" height="27.6094" rx="2.5" ry="2.5" style="stroke:#ADD8E6;stroke-width:0.5;" width="289" x="491" y="739"/><rect fill="#ADD8E6" height="2.5" style="stroke:#ADD8E6;stroke-width:0.5;" width="289" x="491" y="764.1094"/><rect codeLine="51" fill="none" height="149.2656" id="ModAttributes" rx="2.5" ry="2.5" style="stroke:#181818;stroke-width:0.5;" width="289" x="491" y="739"/><text fill="#000000" font-family="sans-serif" font-size="14" lengthAdjust="spacing" textLength="87" x="592" y="758.5332">ModAttributes</text><line style="stroke:#181818;stroke-width:0.5;" x1="492" x2="779" y1="766.6094" y2="766.6094"/><line style="stroke:#181818;stroke-width:0.5;" x1="492" x2="779" y1="774.6094" y2="774.6094"/><text fill="#000000" font-family="sans-serif" font-size="14" lengthAdjust="spacing" textLength="134" x="497" y="793.1426">+Faculty getFaculty()</text><text fill="#000000" font-family="sans-serif" font-size="14" lengthAdjust="spacing" textLength="200" x="497" y="810.752">+String listAvailableSemesters()</text><text fill="#000000" font-family="sans-serif" font-size="14" lengthAdjust="spacing" textLength="116" x="497" y="828.3613">+double getUnits()</text><text fill="#000000" font-family="sans-serif" font-size="14" lengthAdjust="spacing" textLength="131" x="497" y="845.9707">+boolean isGraded()</text><text fill="#000000" font-family="sans-serif" font-size="14" lengthAdjust="spacing" textLength="190" x="497" y="863.5801">+List&lt;Mod&gt; getPrerequisites()</text><text fill="#000000" font-family="sans-serif" font-size="14" lengthAdjust="spacing" textLength="277" x="497" y="881.1895">+Optional&lt;WeeklyWorkload&gt; getWorkload()</text></g><!--class Faculty--><g id="elem_Faculty"><rect codeLine="60" fill="#F1F1F1" height="61.2188" id="Faculty" rx="2.5" ry="2.5" style="stroke:#181818;stroke-width:0.5;" width="127" x="479" y="983.5"/><rect fill="#ADD8E6" height="27.6094" rx="2.5" ry="2.5" style="stroke:#ADD8E6;stroke-width:0.5;" width="127" x="479" y="983.5"/><rect fill="#ADD8E6" height="2.5" style="stroke:#ADD8E6;stroke-width:0.5;" width="127" x="479" y="1008.6094"/><rect codeLine="60" fill="none" height="61.2188" id="Faculty" rx="2.5" ry="2.5" style="stroke:#181818;stroke-width:0.5;" width="127" x="479" y="983.5"/><text fill="#000000" font-family="sans-serif" font-size="14" lengthAdjust="spacing" textLength="46" x="519.5" y="1003.0332">Faculty</text><line style="stroke:#181818;stroke-width:0.5;" x1="480" x2="605" y1="1011.1094" y2="1011.1094"/><line style="stroke:#181818;stroke-width:0.5;" x1="480" x2="605" y1="1019.1094" y2="1019.1094"/><text fill="#000000" font-family="sans-serif" font-size="14" lengthAdjust="spacing" textLength="115" x="485" y="1037.6426">+String getName()</text></g><!--class WeeklyWorkload--><g id="elem_WeeklyWorkload"><rect codeLine="64" fill="#F1F1F1" height="131.6563" id="WeeklyWorkload" rx="2.5" ry="2.5" style="stroke:#181818;stroke-width:0.5;" width="177" x="641" y="948"/><rect fill="#ADD8E6" height="27.6094" rx="2.5" ry="2.5" style="stroke:#ADD8E6;stroke-width:0.5;" width="177" x="641" y="948"/><rect fill="#ADD8E6" height="2.5" style="stroke:#ADD8E6;stroke-width:0.5;" width="177" x="641" y="973.1094"/><rect codeLine="64" fill="none" height="131.6563" id="WeeklyWorkload" rx="2.5" ry="2.5" style="stroke:#181818;stroke-width:0.5;" width="177" x="641" y="948"/><text fill="#000000" font-family="sans-serif" font-size="14" lengthAdjust="spacing" textLength="106" x="676.5" y="967.5332">WeeklyWorkload</text><line style="stroke:#181818;stroke-width:0.5;" x1="642" x2="817" y1="975.6094" y2="975.6094"/><text fill="#000000" font-family="sans-serif" font-size="14" lengthAdjust="spacing" textLength="135" x="647" y="994.1426">+double lectureHours</text><text fill="#000000" font-family="sans-serif" font-size="14" lengthAdjust="spacing" textLength="135" x="647" y="1011.752">+double tutorialHours</text><text fill="#000000" font-family="sans-serif" font-size="14" lengthAdjust="spacing" textLength="135" x="647" y="1029.3613">+double projectHours</text><text fill="#000000" font-family="sans-serif" font-size="14" lengthAdjust="spacing" textLength="165" x="647" y="1046.9707">+double preparationHours</text><line style="stroke:#181818;stroke-width:0.5;" x1="642" x2="817" y1="1054.0469" y2="1054.0469"/><text fill="#000000" font-family="sans-serif" font-size="14" lengthAdjust="spacing" textLength="108" x="647" y="1072.5801">+String toString()</text></g><!--link SearchModCommand to <<interface>> \n Command--><g id="link_SearchModCommand_&lt;&lt;interface&gt;&gt; \n Command"><path codeLine="72" d="M342.57,139.09 C301.31,164.93 270.4956,184.2366 234.6456,206.6866 " fill="none" id="SearchModCommand-to-&lt;&lt;interface&gt;&gt; \n Command" style="stroke:#181818;stroke-width:1.0;stroke-dasharray:7.0,7.0;"/><polygon fill="none" points="219.39,216.24,237.8301,211.7718,231.4611,201.6014,219.39,216.24" style="stroke:#181818;stroke-width:1.0;"/></g><!--link SearchModCommand to LogUtil--><g id="link_SearchModCommand_LogUtil"><path codeLine="73" d="M446.5,139.09 C446.5,158.65 446.5,173.93 446.5,192.86 " fill="none" id="SearchModCommand-to-LogUtil" style="stroke:#181818;stroke-width:1.0;"/><polygon fill="#181818" points="446.5,198.86,450.5,189.86,446.5,193.86,442.5,189.86,446.5,198.86" style="stroke:#181818;stroke-width:1.0;"/></g><!--link SearchModCommand to CommandCenter--><g id="link_SearchModCommand_CommandCenter"><path codeLine="74" d="M587.11,139.09 C636.26,161.84 685.0047,184.4102 730.3647,205.4002 " fill="none" id="SearchModCommand-to-CommandCenter" style="stroke:#181818;stroke-width:1.0;"/><polygon fill="#181818" points="735.81,207.92,729.3219,200.5102,731.2723,205.8202,725.9623,207.7705,735.81,207.92" style="stroke:#181818;stroke-width:1.0;"/></g><!--link CommandCenter to NUSModsAPI--><g id="link_CommandCenter_NUSModsAPI"><path codeLine="75" d="M784.95,304.08 C751.87,333.73 714.1676,367.5049 683.0676,395.3849 " fill="none" id="CommandCenter-to-NUSModsAPI" style="stroke:#181818;stroke-width:1.0;"/><polygon fill="#181818" points="678.6,399.39,687.9715,396.3608,682.323,396.0525,682.6314,390.404,678.6,399.39" style="stroke:#181818;stroke-width:1.0;"/></g><!--link CommandCenter to CondensedMod--><g id="link_CommandCenter_CondensedMod"><path codeLine="76" d="M889.79,304.08 C913.05,325.03 936.3713,346.035 961.5913,368.745 " fill="none" id="CommandCenter-to-CondensedMod" style="stroke:#181818;stroke-width:1.0;"/><polygon fill="#181818" points="966.05,372.76,962.0386,363.7651,962.3344,369.4142,956.6853,369.71,966.05,372.76" style="stroke:#181818;stroke-width:1.0;"/></g><!--link NUSModsAPI to Mod--><g id="link_NUSModsAPI_Mod"><path codeLine="77" d="M635.5,478.83 C635.5,503.86 635.5,530.83 635.5,558.71 " fill="none" id="NUSModsAPI-to-Mod" style="stroke:#181818;stroke-width:1.0;"/><polygon fill="#181818" points="635.5,564.71,639.5,555.71,635.5,559.71,631.5,555.71,635.5,564.71" style="stroke:#181818;stroke-width:1.0;"/></g><!--link Mod to ModAttributes--><g id="link_Mod_ModAttributes"><path codeLine="78" d="M635.5,679.09 C635.5,697.86 635.5,713.07 635.5,732.97 " fill="none" id="Mod-to-ModAttributes" style="stroke:#181818;stroke-width:1.0;"/><polygon fill="#181818" points="635.5,738.97,639.5,729.97,635.5,733.97,631.5,729.97,635.5,738.97" style="stroke:#181818;stroke-width:1.0;"/></g><!--link ModAttributes to Faculty--><g id="link_ModAttributes_Faculty"><path codeLine="79" d="M601,888.13 C585.55,921.12 570.7348,952.7364 558.9748,977.8464 " fill="none" id="ModAttributes-to-Faculty" style="stroke:#181818;stroke-width:1.0;"/><polygon fill="#181818" points="556.43,983.28,563.8696,976.8261,558.5506,978.752,556.6248,973.4331,556.43,983.28" style="stroke:#181818;stroke-width:1.0;"/></g><!--link ModAttributes to WeeklyWorkload--><g id="link_ModAttributes_WeeklyWorkload"><path codeLine="80" d="M670.37,888.13 C679.67,907.77 687.0829,923.4269 696.1429,942.5669 " fill="none" id="ModAttributes-to-WeeklyWorkload" style="stroke:#181818;stroke-width:1.0;"/><polygon fill="#181818" points="698.71,947.99,698.4748,938.144,696.5708,943.4707,691.244,941.5667,698.71,947.99" style="stroke:#181818;stroke-width:1.0;"/></g><!--SRC=[bLNhRjem5FwVfx3u1MgfzW2C2UWDYL9KG5srJPER7AY7OpFReVTttt7Y97PWrOQ44f_lNBvpySa3Iu34JCKS8hrXOaiLJKdCgTO3OnIxpmoCOodcx0N8fwRA9T04r936cxMIcKX6aaj59cpzO8OyWoZAjSWSg8eVhYJYQKf5GbuZWhyZRQXXCLanGJcPOpIn9gF9-EVDsUpcR7usNGmMu-if-KnQElUGogILMtO3oubSBmtZX1VFmlTEieJ04yIOGBlm_Uq7eMgjZybIWo9nfXG8OzyxWTC9qwQ7PFja3QQWVWCwuqOxFwHWim2L5fP7pGJRdUWzYfWme5Oq1jBgzQf3lq- -2-8KMsKf_e_kUrdPCdNdnHtR8mlsllHjbrvUEbu89bQoJ2C5hUaQVFYHAe7G1neQTg1WJw5Yv18RWSstqUWhkkqLXiUe9n8G6fAyqfJpl7e9w858fXJz1fRNMyCazhhe2yx1kPAfLRzMLhcYK_WeX1Ti1w8Jk2dxbp-iYo6OHm0neyhehtVDmcFFy9_0avVVT3b73dem6pUI2ockmEG3aN4OFbjE9SKOtpl_M9NSoQ0kJTiIGYjbxd3WWgBNPevMruiN20IMnarj8S0fpmbscjAyiaxgH_1JEIQUMuzHJSHpU0g6CWv98TaFU0ewLYolOmdcbt71KhIyvv1VoUgaIoKCLYqhRLNgKplavAavTkSqnglzRAtSQuCNHmQ37VAs8UU0auc3NOLEP8PYQxqKp5JYUoavK46Olb2u8fCWdNAtp1JUfDyPqypKkLHZT0kmuS-tKcsuf8L1UV2JAlc__gLxbMBehzHt_3d49bDmAJEb0y1aHYf6-JwoLV8NMXq2m7uYR1eUw8WPMJKVcUrz64vEtleVRCjzWswtNox1ms2mZw9mErcyliy7G7_g8-_cMyoAx9Ixztgoed3EBEwQT009knBz0G00]--></g></svg>