<?xml version="1.0" encoding="us-ascii" standalone="no"?><svg xmlns="http://www.w3.org/2000/svg" xmlns:xlink="http://www.w3.org/1999/xlink" contentStyleType="text/css" height="714px" preserveAspectRatio="none" style="width:819px;height:714px;background:#FFFFFF;" version="1.1" viewBox="0 0 819 714" width="819px" zoomAndPan="magnify"><defs/><g><rect fill="#FFFFFF" height="477.2422" style="stroke:#181818;stroke-width:1.0;" width="10" x="409.5" y="145.3125"/><rect fill="#FFFFFF" height="99.0547" style="stroke:#181818;stroke-width:1.0;" width="10" x="414.5" y="175.6641"/><rect fill="#FFFFFF" height="162.7578" style="stroke:#181818;stroke-width:1.0;" width="10" x="414.5" y="328.9063"/><rect fill="none" height="381.5391" style="stroke:#000000;stroke-width:1.5;" width="802" x="10" y="234.0156"/><rect fill="none" height="94.8906" style="stroke:#000000;stroke-width:1.5;" width="479.5" x="20" y="513.6641"/><line style="stroke:#181818;stroke-width:0.5;stroke-dasharray:5.0,5.0;" x1="47" x2="47" y1="82.6094" y2="632.5547"/><line style="stroke:#181818;stroke-width:0.5;stroke-dasharray:5.0,5.0;" x1="230" x2="230" y1="82.6094" y2="632.5547"/><line style="stroke:#181818;stroke-width:0.5;stroke-dasharray:5.0,5.0;" x1="414.5" x2="414.5" y1="82.6094" y2="632.5547"/><line style="stroke:#181818;stroke-width:0.5;stroke-dasharray:5.0,5.0;" x1="635" x2="635" y1="82.6094" y2="632.5547"/><line style="stroke:#181818;stroke-width:0.5;stroke-dasharray:5.0,5.0;" x1="754" x2="754" y1="82.6094" y2="632.5547"/><text fill="#000000" font-family="sans-serif" font-size="14" lengthAdjust="spacing" textLength="29" x="30" y="79.5332">User</text><ellipse cx="47.5" cy="13.5" fill="#E2E2F0" rx="8" ry="8" style="stroke:#181818;stroke-width:0.5;"/><path d="M47.5,21.5 L47.5,48.5 M34.5,29.5 L60.5,29.5 M47.5,48.5 L34.5,63.5 M47.5,48.5 L60.5,63.5 " fill="none" style="stroke:#181818;stroke-width:0.5;"/><text fill="#000000" font-family="sans-serif" font-size="14" lengthAdjust="spacing" textLength="29" x="30" y="646.0879">User</text><ellipse cx="47.5" cy="657.6641" fill="#E2E2F0" rx="8" ry="8" style="stroke:#181818;stroke-width:0.5;"/><path d="M47.5,665.6641 L47.5,692.6641 M34.5,673.6641 L60.5,673.6641 M47.5,692.6641 L34.5,707.6641 M47.5,692.6641 L60.5,707.6641 " fill="none" style="stroke:#181818;stroke-width:0.5;"/><rect fill="#E2E2F0" height="31.6094" rx="2.5" ry="2.5" style="stroke:#181818;stroke-width:0.5;" width="105" x="178" y="50"/><text fill="#000000" font-family="sans-serif" font-size="14" lengthAdjust="spacing" textLength="91" x="185" y="71.5332">CommandLine</text><rect fill="#E2E2F0" height="31.6094" rx="2.5" ry="2.5" style="stroke:#181818;stroke-width:0.5;" width="105" x="178" y="631.5547"/><text fill="#000000" font-family="sans-serif" font-size="14" lengthAdjust="spacing" textLength="91" x="185" y="653.0879">CommandLine</text><rect fill="#E2E2F0" height="31.6094" rx="2.5" ry="2.5" style="stroke:#181818;stroke-width:0.5;" width="150" x="339.5" y="50"/><text fill="#000000" font-family="sans-serif" font-size="14" lengthAdjust="spacing" textLength="136" x="346.5" y="71.5332">SearchModCommand</text><rect fill="#E2E2F0" height="31.6094" rx="2.5" ry="2.5" style="stroke:#181818;stroke-width:0.5;" width="150" x="339.5" y="631.5547"/><text fill="#000000" font-family="sans-serif" font-size="14" lengthAdjust="spacing" textLength="136" x="346.5" y="653.0879">SearchModCommand</text><rect fill="#E2E2F0" height="31.6094" rx="2.5" ry="2.5" style="stroke:#181818;stroke-width:0.5;" width="121" x="575" y="50"/><text fill="#000000" font-family="sans-serif" font-size="14" lengthAdjust="spacing" textLength="107" x="582" y="71.5332">CommandCenter</text><rect fill="#E2E2F0" height="31.6094" rx="2.5" ry="2.5" style="stroke:#181818;stroke-width:0.5;" width="121" x="575" y="631.5547"/><text fill="#000000" font-family="sans-serif" font-size="14" lengthAdjust="spacing" textLength="107" x="582" y="653.0879">CommandCenter</text><rect fill="#E2E2F0" height="31.6094" rx="2.5" ry="2.5" style="stroke:#181818;stroke-width:0.5;" width="96" x="706" y="50"/><text fill="#000000" font-family="sans-serif" font-size="14" lengthAdjust="spacing" textLength="82" x="713" y="71.5332">NUSModsAPI</text><rect fill="#E2E2F0" height="31.6094" rx="2.5" ry="2.5" style="stroke:#181818;stroke-width:0.5;" width="96" x="706" y="631.5547"/><text fill="#000000" font-family="sans-serif" font-size="14" lengthAdjust="spacing" textLength="82" x="713" y="653.0879">NUSModsAPI</text><rect fill="#FFFFFF" height="477.2422" style="stroke:#181818;stroke-width:1.0;" width="10" x="409.5" y="145.3125"/><rect fill="#FFFFFF" height="99.0547" style="stroke:#181818;stroke-width:1.0;" width="10" x="414.5" y="175.6641"/><rect fill="#FFFFFF" height="162.7578" style="stroke:#181818;stroke-width:1.0;" width="10" x="414.5" y="328.9063"/><polygon fill="#181818" points="218.5,110.9609,228.5,114.9609,218.5,118.9609,222.5,114.9609" style="stroke:#181818;stroke-width:1.0;"/><line style="stroke:#181818;stroke-width:1.0;" x1="47.5" x2="224.5" y1="114.9609" y2="114.9609"/><text fill="#000000" font-family="sans-serif" font-size="13" lengthAdjust="spacing" textLength="159" x="54.5" y="110.1045">getCommand("searchmod")</text><polygon fill="#181818" points="397.5,141.3125,407.5,145.3125,397.5,149.3125,401.5,145.3125" style="stroke:#181818;stroke-width:1.0;"/><line style="stroke:#181818;stroke-width:1.0;" x1="230.5" x2="403.5" y1="145.3125" y2="145.3125"/><text fill="#000000" font-family="sans-serif" font-size="13" lengthAdjust="spacing" textLength="160" x="237.5" y="140.4561">new SearchModCommand()</text><polygon fill="#181818" points="402.5,171.6641,412.5,175.6641,402.5,179.6641,406.5,175.6641" style="stroke:#181818;stroke-width:1.0;"/><line style="stroke:#181818;stroke-width:1.0;" x1="47.5" x2="408.5" y1="175.6641" y2="175.6641"/><text fill="#000000" font-family="sans-serif" font-size="13" lengthAdjust="spacing" textLength="154" x="54.5" y="170.8076">execute(args, currentUser)</text><line style="stroke:#181818;stroke-width:1.0;" x1="424.5" x2="466.5" y1="206.0156" y2="206.0156"/><line style="stroke:#181818;stroke-width:1.0;" x1="466.5" x2="466.5" y1="206.0156" y2="219.0156"/><line style="stroke:#181818;stroke-width:1.0;" x1="425.5" x2="466.5" y1="219.0156" y2="219.0156"/><polygon fill="#181818" points="435.5,215.0156,425.5,219.0156,435.5,223.0156,431.5,219.0156" style="stroke:#181818;stroke-width:1.0;"/><text fill="#000000" font-family="sans-serif" font-size="13" lengthAdjust="spacing" textLength="72" x="431.5" y="201.1592">validate args</text><path d="M10,234.0156 L71,234.0156 L71,242.3672 L61,252.3672 L10,252.3672 L10,234.0156 " fill="#EEEEEE" style="stroke:#000000;stroke-width:1.5;"/><rect fill="none" height="381.5391" style="stroke:#000000;stroke-width:1.5;" width="802" x="10" y="234.0156"/><text fill="#000000" font-family="sans-serif" font-size="13" font-weight="bold" lengthAdjust="spacing" textLength="16" x="25" y="248.5107">alt</text><text fill="#000000" font-family="sans-serif" font-size="11" font-weight="bold" lengthAdjust="spacing" textLength="71" x="86" y="247.4346">[Invalid args]</text><polygon fill="#181818" points="58.5,270.7188,48.5,274.7188,58.5,278.7188,54.5,274.7188" style="stroke:#181818;stroke-width:1.0;"/><line style="stroke:#181818;stroke-width:1.0;" x1="52.5" x2="408.5" y1="274.7188" y2="274.7188"/><text fill="#000000" font-family="sans-serif" font-size="13" lengthAdjust="spacing" textLength="214" x="64.5" y="269.8623">"Usage: searchmod &lt;search query&gt;"</text><line style="stroke:#000000;stroke-width:1.0;stroke-dasharray:2.0,2.0;" x1="10" x2="812" y1="283.7188" y2="283.7188"/><text fill="#000000" font-family="sans-serif" font-size="11" font-weight="bold" lengthAdjust="spacing" textLength="63" x="15" y="295.1377">[Valid args]</text><line style="stroke:#181818;stroke-width:1.0;" x1="419.5" x2="466.5" y1="315.9063" y2="315.9063"/><line style="stroke:#181818;stroke-width:1.0;" x1="466.5" x2="466.5" y1="315.9063" y2="328.9063"/><line style="stroke:#181818;stroke-width:1.0;" x1="425.5" x2="466.5" y1="328.9063" y2="328.9063"/><polygon fill="#181818" points="435.5,324.9063,425.5,328.9063,435.5,332.9063,431.5,328.9063" style="stroke:#181818;stroke-width:1.0;"/><text fill="#000000" font-family="sans-serif" font-size="13" lengthAdjust="spacing" textLength="179" x="431.5" y="311.0498">getSearchResults(searchTerm)</text><polygon fill="#181818" points="623.5,360.2578,633.5,364.2578,623.5,368.2578,627.5,364.2578" style="stroke:#181818;stroke-width:1.0;"/><line style="stroke:#181818;stroke-width:1.0;" x1="424.5" x2="629.5" y1="364.2578" y2="364.2578"/><text fill="#000000" font-family="sans-serif" font-size="13" lengthAdjust="spacing" textLength="187" x="431.5" y="359.4014">allModCodesAndNames.values()</text><polygon fill="#181818" points="435.5,390.6094,425.5,394.6094,435.5,398.6094,431.5,394.6094" style="stroke:#181818;stroke-width:1.0;"/><line style="stroke:#181818;stroke-width:1.0;" x1="429.5" x2="634.5" y1="394.6094" y2="394.6094"/><text fill="#000000" font-family="sans-serif" font-size="13" lengthAdjust="spacing" textLength="127" x="441.5" y="389.7529">List&lt;CondensedMod&gt;</text><polygon fill="#181818" points="742,420.9609,752,424.9609,742,428.9609,746,424.9609" style="stroke:#181818;stroke-width:1.0;"/><line style="stroke:#181818;stroke-width:1.0;" x1="424.5" x2="748" y1="424.9609" y2="424.9609"/><text fill="#000000" font-family="sans-serif" font-size="13" lengthAdjust="spacing" textLength="272" x="431.5" y="420.1045">fetchModuleByCode(condensedMod.getCode())</text><polygon fill="#181818" points="435.5,451.3125,425.5,455.3125,435.5,459.3125,431.5,455.3125" style="stroke:#181818;stroke-width:1.0;"/><line style="stroke:#181818;stroke-width:1.0;" x1="429.5" x2="753" y1="455.3125" y2="455.3125"/><text fill="#000000" font-family="sans-serif" font-size="13" lengthAdjust="spacing" textLength="89" x="441.5" y="450.4561">Optional&lt;Mod&gt;</text><line style="stroke:#181818;stroke-width:1.0;" x1="424.5" x2="466.5" y1="490.6641" y2="490.6641"/><line style="stroke:#181818;stroke-width:1.0;" x1="466.5" x2="466.5" y1="490.6641" y2="503.6641"/><line style="stroke:#181818;stroke-width:1.0;" x1="419.5" x2="466.5" y1="503.6641" y2="503.6641"/><polygon fill="#181818" points="429.5,499.6641,419.5,503.6641,429.5,507.6641,425.5,503.6641" style="stroke:#181818;stroke-width:1.0;"/><text fill="#000000" font-family="sans-serif" font-size="13" lengthAdjust="spacing" textLength="121" x="431.5" y="485.8076">filter and map results</text><path d="M20,513.6641 L81,513.6641 L81,522.0156 L71,532.0156 L20,532.0156 L20,513.6641 " fill="#EEEEEE" style="stroke:#000000;stroke-width:1.5;"/><rect fill="none" height="94.8906" style="stroke:#000000;stroke-width:1.5;" width="479.5" x="20" y="513.6641"/><text fill="#000000" font-family="sans-serif" font-size="13" font-weight="bold" lengthAdjust="spacing" textLength="16" x="35" y="528.1592">alt</text><text fill="#000000" font-family="sans-serif" font-size="11" font-weight="bold" lengthAdjust="spacing" textLength="85" x="96" y="527.083">[Results found]</text><polygon fill="#181818" points="58.5,550.3672,48.5,554.3672,58.5,558.3672,54.5,554.3672" style="stroke:#181818;stroke-width:1.0;"/><line style="stroke:#181818;stroke-width:1.0;" x1="52.5" x2="408.5" y1="554.3672" y2="554.3672"/><text fill="#000000" font-family="sans-serif" font-size="13" lengthAdjust="spacing" textLength="79" x="64.5" y="549.5107">Display mods</text><line style="stroke:#000000;stroke-width:1.0;stroke-dasharray:2.0,2.0;" x1="20" x2="499.5" y1="563.3672" y2="563.3672"/><text fill="#000000" font-family="sans-serif" font-size="11" font-weight="bold" lengthAdjust="spacing" textLength="65" x="25" y="574.7861">[No results]</text><polygon fill="#181818" points="58.5,596.5547,48.5,600.5547,58.5,604.5547,54.5,600.5547" style="stroke:#181818;stroke-width:1.0;"/><line style="stroke:#181818;stroke-width:1.0;" x1="52.5" x2="408.5" y1="600.5547" y2="600.5547"/><text fill="#000000" font-family="sans-serif" font-size="13" lengthAdjust="spacing" textLength="259" x="64.5" y="595.6982">"No mods found matching the search query."</text><!--SRC=[RLBBReCm4Bpp5IjE8BNv01H5Ikab4achfkbzXJV4aZ7KDcdpzrtRY8OaI3oqdfcTtG5hrnauM399ZyR9MlQe7QHbrxQeHIKrfO0Mocf-lYSqzMdRYH4OGFjj-L2b9Et8H9qRnEwmPn6xVj-4OtudYNS3polkMK13RXJ9KXjwjfr8ywIiF88R5g3f1sxjP7c2jPDdT1HSJPg1GRzK3uuoD8rzWdemXWrwn2sB7nFfZ4eAV-9P2Ie76nrgiG1yZN2lL41wiDXG0PDhMCPF-1x8N5Pfe0YQTIHb2RuUgWOJl8uuwWVPGJcRHSbFCcqUm7F_L_IIsQXKM94WkzPYXotP1OymaCqYk_plL4dhbcMd1MbBWcchcHm7LS2HN5ZweEZbucMp-egm2DbnCO_YJ9dKttedEurg6OHlfpnAnVyBS8xGOWycplfeNt5cpcBS1noxGOjGlGlaLTfUuGKuYgWLbhthPlhtCJB0Cw8o- -6HfMx0dGYkyrp4F8cx-pkP6_q3]--></g></svg>