<?xml version="1.0" encoding="us-ascii" standalone="no"?><svg xmlns="http://www.w3.org/2000/svg" xmlns:xlink="http://www.w3.org/1999/xlink" contentStyleType="text/css" height="617px" preserveAspectRatio="none" style="width:500px;height:617px;background:#FFFFFF;" version="1.1" viewBox="0 0 500 617" width="500px" zoomAndPan="magnify"><defs/><g><!--cluster Architecture--><g id="cluster_Architecture"><path d="M8.5,6 L96.5,6 A3.75,3.75 0 0 1 99,8.5 L106,29.6094 L490.5,29.6094 A2.5,2.5 0 0 1 493,32.1094 L493,607.5 A2.5,2.5 0 0 1 490.5,610 L8.5,610 A2.5,2.5 0 0 1 6,607.5 L6,8.5 A2.5,2.5 0 0 1 8.5,6 " fill="none" style="stroke:#000000;stroke-width:1.5;"/><line style="stroke:#000000;stroke-width:1.5;" x1="6" x2="106" y1="29.6094" y2="29.6094"/><text fill="#000000" font-family="sans-serif" font-size="14" font-weight="bold" lengthAdjust="spacing" textLength="87" x="10" y="22.5332">Architecture</text></g><!--entity Main--><g id="elem_Main"><rect fill="#F1F1F1" height="47.6094" rx="2.5" ry="2.5" style="stroke:#181818;stroke-width:0.5;" width="70" x="207" y="42"/><rect fill="#F1F1F1" height="10" style="stroke:#181818;stroke-width:0.5;" width="15" x="257" y="47"/><rect fill="#F1F1F1" height="2" style="stroke:#181818;stroke-width:0.5;" width="4" x="255" y="49"/><rect fill="#F1F1F1" height="2" style="stroke:#181818;stroke-width:0.5;" width="4" x="255" y="53"/><text fill="#000000" font-family="sans-serif" font-size="14" lengthAdjust="spacing" textLength="30" x="222" y="76.5332">Main</text></g><!--entity CommandLine--><g id="elem_CommandLine"><rect fill="#F1F1F1" height="47.6094" rx="2.5" ry="2.5" style="stroke:#181818;stroke-width:0.5;" width="131" x="176.5" y="168"/><rect fill="#F1F1F1" height="10" style="stroke:#181818;stroke-width:0.5;" width="15" x="287.5" y="173"/><rect fill="#F1F1F1" height="2" style="stroke:#181818;stroke-width:0.5;" width="4" x="285.5" y="175"/><rect fill="#F1F1F1" height="2" style="stroke:#181818;stroke-width:0.5;" width="4" x="285.5" y="179"/><text fill="#000000" font-family="sans-serif" font-size="14" lengthAdjust="spacing" textLength="91" x="191.5" y="202.5332">CommandLine</text></g><!--entity Command--><g id="elem_Command"><rect fill="#F1F1F1" height="47.6094" rx="2.5" ry="2.5" style="stroke:#181818;stroke-width:0.5;" width="104" x="190" y="294"/><rect fill="#F1F1F1" height="10" style="stroke:#181818;stroke-width:0.5;" width="15" x="274" y="299"/><rect fill="#F1F1F1" height="2" style="stroke:#181818;stroke-width:0.5;" width="4" x="272" y="301"/><rect fill="#F1F1F1" height="2" style="stroke:#181818;stroke-width:0.5;" width="4" x="272" y="305"/><text fill="#000000" font-family="sans-serif" font-size="14" lengthAdjust="spacing" textLength="64" x="205" y="328.5332">Command</text></g><!--entity NUSModsAPI--><g id="elem_NUSModsAPI"><rect fill="#F1F1F1" height="47.6094" rx="2.5" ry="2.5" style="stroke:#181818;stroke-width:0.5;" width="122" x="43" y="420"/><rect fill="#F1F1F1" height="10" style="stroke:#181818;stroke-width:0.5;" width="15" x="145" y="425"/><rect fill="#F1F1F1" height="2" style="stroke:#181818;stroke-width:0.5;" width="4" x="143" y="427"/><rect fill="#F1F1F1" height="2" style="stroke:#181818;stroke-width:0.5;" width="4" x="143" y="431"/><text fill="#000000" font-family="sans-serif" font-size="14" lengthAdjust="spacing" textLength="82" x="58" y="454.5332">NUSModsAPI</text></g><!--entity LogUtil--><g id="elem_LogUtil"><rect fill="#F1F1F1" height="47.6094" rx="2.5" ry="2.5" style="stroke:#181818;stroke-width:0.5;" width="83" x="200.5" y="420"/><rect fill="#F1F1F1" height="10" style="stroke:#181818;stroke-width:0.5;" width="15" x="263.5" y="425"/><rect fill="#F1F1F1" height="2" style="stroke:#181818;stroke-width:0.5;" width="4" x="261.5" y="427"/><rect fill="#F1F1F1" height="2" style="stroke:#181818;stroke-width:0.5;" width="4" x="261.5" y="431"/><text fill="#000000" font-family="sans-serif" font-size="14" lengthAdjust="spacing" textLength="43" x="215.5" y="454.5332">LogUtil</text></g><!--entity User--><g id="elem_User"><rect fill="#F1F1F1" height="47.6094" rx="2.5" ry="2.5" style="stroke:#181818;stroke-width:0.5;" width="69" x="323.5" y="420"/><rect fill="#F1F1F1" height="10" style="stroke:#181818;stroke-width:0.5;" width="15" x="372.5" y="425"/><rect fill="#F1F1F1" height="2" style="stroke:#181818;stroke-width:0.5;" width="4" x="370.5" y="427"/><rect fill="#F1F1F1" height="2" style="stroke:#181818;stroke-width:0.5;" width="4" x="370.5" y="431"/><text fill="#000000" font-family="sans-serif" font-size="14" lengthAdjust="spacing" textLength="29" x="338.5" y="454.5332">User</text></g><!--entity Schedule--><g id="elem_Schedule"><rect fill="#F1F1F1" height="47.6094" rx="2.5" ry="2.5" style="stroke:#181818;stroke-width:0.5;" width="99" x="308.5" y="546"/><rect fill="#F1F1F1" height="10" style="stroke:#181818;stroke-width:0.5;" width="15" x="387.5" y="551"/><rect fill="#F1F1F1" height="2" style="stroke:#181818;stroke-width:0.5;" width="4" x="385.5" y="553"/><rect fill="#F1F1F1" height="2" style="stroke:#181818;stroke-width:0.5;" width="4" x="385.5" y="557"/><text fill="#000000" font-family="sans-serif" font-size="14" lengthAdjust="spacing" textLength="59" x="323.5" y="580.5332">Schedule</text></g><!--entity HttpUtil--><g id="elem_HttpUtil"><rect fill="#F1F1F1" height="47.6094" rx="2.5" ry="2.5" style="stroke:#181818;stroke-width:0.5;" width="84" x="22" y="546"/><rect fill="#F1F1F1" height="10" style="stroke:#181818;stroke-width:0.5;" width="15" x="86" y="551"/><rect fill="#F1F1F1" height="2" style="stroke:#181818;stroke-width:0.5;" width="4" x="84" y="553"/><rect fill="#F1F1F1" height="2" style="stroke:#181818;stroke-width:0.5;" width="4" x="84" y="557"/><text fill="#000000" font-family="sans-serif" font-size="14" lengthAdjust="spacing" textLength="44" x="37" y="580.5332">HttpUtil</text></g><!--entity JsonParser--><g id="elem_JsonParser"><rect fill="#F1F1F1" height="47.6094" rx="2.5" ry="2.5" style="stroke:#181818;stroke-width:0.5;" width="111" x="141.5" y="546"/><rect fill="#F1F1F1" height="10" style="stroke:#181818;stroke-width:0.5;" width="15" x="232.5" y="551"/><rect fill="#F1F1F1" height="2" style="stroke:#181818;stroke-width:0.5;" width="4" x="230.5" y="553"/><rect fill="#F1F1F1" height="2" style="stroke:#181818;stroke-width:0.5;" width="4" x="230.5" y="557"/><text fill="#000000" font-family="sans-serif" font-size="14" lengthAdjust="spacing" textLength="71" x="156.5" y="580.5332">JsonParser</text></g><!--link Main to CommandLine--><g id="link_Main_CommandLine"><path d="M242,90.03 C242,112.17 242,139.44 242,161.67 " fill="none" id="Main-to-CommandLine" style="stroke:#181818;stroke-width:1.0;"/><polygon fill="#181818" points="242,167.67,246,158.67,242,162.67,238,158.67,242,167.67" style="stroke:#181818;stroke-width:1.0;"/><text fill="#000000" font-family="sans-serif" font-size="13" lengthAdjust="spacing" textLength="54" x="243" y="134.4951">Initializes</text></g><!--link CommandLine to Command--><g id="link_CommandLine_Command"><path d="M242,216.03 C242,238.17 242,265.44 242,287.67 " fill="none" id="CommandLine-to-Command" style="stroke:#181818;stroke-width:1.0;"/><polygon fill="#181818" points="242,293.67,246,284.67,242,288.67,238,284.67,242,293.67" style="stroke:#181818;stroke-width:1.0;"/><text fill="#000000" font-family="sans-serif" font-size="13" lengthAdjust="spacing" textLength="88" x="243" y="260.4951">Parses input to</text></g><!--link Command to NUSModsAPI--><g id="link_Command_NUSModsAPI"><path d="M189.86,335.27 C169.96,343.62 148.4,355.57 133,372 C120.53,385.31 114.7055,398.9288 110.4955,414.0888 " fill="none" id="Command-to-NUSModsAPI" style="stroke:#181818;stroke-width:1.0;"/><polygon fill="#181818" points="108.89,419.87,115.1523,412.2685,110.2279,415.0523,107.4441,410.1279,108.89,419.87" style="stroke:#181818;stroke-width:1.0;"/><text fill="#000000" font-family="sans-serif" font-size="13" lengthAdjust="spacing" textLength="95" x="134" y="386.4951">Fetches data via</text></g><!--link Command to LogUtil--><g id="link_Command_LogUtil"><path d="M240.21,342.02 C239.33,355.91 238.55,373.97 239,390 C239.28,399.77 239.4778,404.5409 240.0378,413.8009 " fill="none" id="Command-to-LogUtil" style="stroke:#181818;stroke-width:1.0;"/><polygon fill="#181818" points="240.4,419.79,243.8494,410.565,240.0982,414.7991,235.864,411.0479,240.4,419.79" style="stroke:#181818;stroke-width:1.0;"/><text fill="#000000" font-family="sans-serif" font-size="13" lengthAdjust="spacing" textLength="74" x="240" y="386.4951">Logs actions</text></g><!--link Command to User--><g id="link_Command_User"><path d="M283.19,342.22 C295.67,350.53 308.77,360.68 319,372 C331.73,386.08 339.3888,399.6016 346.1388,414.3916 " fill="none" id="Command-to-User" style="stroke:#181818;stroke-width:1.0;"/><polygon fill="#181818" points="348.63,419.85,348.5322,410.0016,346.554,415.3013,341.2543,413.3232,348.63,419.85" style="stroke:#181818;stroke-width:1.0;"/><text fill="#000000" font-family="sans-serif" font-size="13" lengthAdjust="spacing" textLength="81" x="333" y="386.4951">Updates state</text></g><!--link User to Schedule--><g id="link_User_Schedule"><path d="M358,468.03 C358,490.17 358,517.44 358,539.67 " fill="none" id="User-to-Schedule" style="stroke:#181818;stroke-width:1.0;"/><polygon fill="#181818" points="358,545.67,362,536.67,358,540.67,354,536.67,358,545.67" style="stroke:#181818;stroke-width:1.0;"/><text fill="#000000" font-family="sans-serif" font-size="13" lengthAdjust="spacing" textLength="117" x="359" y="512.4951">Manages timetables</text></g><!--link NUSModsAPI to HttpUtil--><g id="link_NUSModsAPI_HttpUtil"><path d="M75.07,468 C66.64,476.44 58.48,486.71 54,498 C47.93,513.27 49.0901,525.9129 53.2701,540.1529 " fill="none" id="NUSModsAPI-to-HttpUtil" style="stroke:#181818;stroke-width:1.0;"/><polygon fill="#181818" points="54.96,545.91,56.2632,536.1477,53.5517,541.1124,48.587,538.401,54.96,545.91" style="stroke:#181818;stroke-width:1.0;"/><text fill="#000000" font-family="sans-serif" font-size="13" lengthAdjust="spacing" textLength="91" x="55" y="512.4951">Sends requests</text></g><!--link NUSModsAPI to JsonParser--><g id="link_NUSModsAPI_JsonParser"><path d="M125.84,468.1 C134.05,477.16 143.26,487.82 151,498 C162.65,513.31 171.2722,526.442 179.9922,540.592 " fill="none" id="NUSModsAPI-to-JsonParser" style="stroke:#181818;stroke-width:1.0;"/><polygon fill="#181818" points="183.14,545.7,181.8236,535.9395,180.5168,541.4434,175.013,540.1366,183.14,545.7" style="stroke:#181818;stroke-width:1.0;"/><text fill="#000000" font-family="sans-serif" font-size="13" lengthAdjust="spacing" textLength="126" x="164" y="512.4951">Processes responses</text></g><!--SRC=[TP31QiCm38RlVGhHUrzWXq4PZ7Kq8n1oAZrejcZ54jkrb1uwzkwJdHLQw7onGTzd_L92zuK7WkKwkoChEPqoBU5x0NPs3NBOmshr3BkNE8uO_9O3xU49De6LSU0BoOpUrM-DGhUOXGGuf4b1uvtnHt_qNHEzhDjD4Lv9tT4CZufmPdnaREEXLnuARay1TCeno2Eq5yg5wvDzQD-AsZM3SwbIdRNqqr3dQp3OMWIKHrBy7AvZtiQiqfjgkiReA7Y1JAU9HFyJtYM6ke-QgCtHaPJbP99ayQtHp-8N]--></g></svg>